<svg xmlns="http://www.w3.org/2000/svg" xmlns:xlink="http://www.w3.org/1999/xlink" width="30" height="30" viewBox="0 0 30 30">
  <defs>
    <clipPath id="clip-password_show">
      <rect width="30" height="30"/>
    </clipPath>
  </defs>
  <g id="password_show" clip-path="url(#clip-password_show)">
    <g id="Group_9858" data-name="Group 9858" transform="translate(-310.809 -243.229)">
      <path id="Path_211" data-name="Path 211" d="M297.015,250.082c-5.047,0-9.623,2.761-13,7.245a1.045,1.045,0,0,0,0,1.248c3.377,4.49,7.953,7.252,13,7.252s9.622-2.762,13-7.246a1.045,1.045,0,0,0,0-1.248C306.637,252.843,302.061,250.082,297.015,250.082Zm.361,13.415a5.555,5.555,0,1,1,5.181-5.181A5.558,5.558,0,0,1,297.376,263.5Zm-.167-2.56A2.991,2.991,0,1,1,300,258.143,2.987,2.987,0,0,1,297.209,260.937Z" transform="translate(29)" fill="#33475b" opacity="0.3"/>
    </g>
  </g>
</svg>
