<svg width="530" height="512" viewBox="0 0 530 512" fill="none" xmlns="http://www.w3.org/2000/svg">
<g clip-path="url(#clip0_3_30628)">
<path d="M352.415 326.908C381.17 313.475 416.239 297.715 448.024 283.918H528.199C508.949 413.867 401.044 513.855 260.769 510.909C113.023 507.804 0.586378 385.842 1.0024 264.028C3.72548 281.262 10.7068 300.034 19.2931 317.381C30.858 340.747 45.4198 361.699 56.6825 373.048C133.921 450.922 218.181 465.035 287.443 450.484C322.055 443.213 352.91 428.787 377.266 411.605C401.609 394.433 419.522 374.464 428.176 356.061L428.844 354.642L427.276 354.635L297.638 354.091C301.458 351.831 307.471 348.657 315.168 344.803C325.192 339.783 338.009 333.638 352.415 326.908Z" fill="#52AE32" stroke="white" stroke-width="2"/>
<path d="M247.38 434.21C123.137 433.371 25.1559 348.511 18.7903 230.767C15.5873 171.395 37.7263 113.464 74.442 70.6198C109.415 29.8098 157.553 2.7525 209.522 1.11409C110.922 29.0414 68.7572 104.391 64.9619 178.857C63.0174 217.008 71.1392 254.942 86.8977 286.176C102.653 317.404 126.08 342.003 154.79 353.351L156.231 353.92L156.156 352.373L151.167 249.154C152.527 251.187 154.306 254.049 156.436 257.622C159.785 263.24 163.964 270.55 168.681 279.004C178.113 295.913 189.684 317.382 201.041 339.017C212.399 360.653 223.539 382.45 232.111 400.013C236.398 408.796 240.039 416.514 242.744 422.621C245.033 427.789 246.623 431.745 247.38 434.21Z" fill="#004457" stroke="white" stroke-width="2"/>
<path d="M470.1 144.101C464.635 136.971 460.434 130.902 456.796 125.483C455.673 123.81 454.601 122.195 453.562 120.628C450.797 116.462 448.257 112.634 445.569 108.945C438.134 98.7366 429.545 89.5455 411.697 76.627L411.111 77.4371L411.697 76.6269C359.167 38.6164 299.862 36.0499 250.802 51.9633C201.797 67.8592 162.835 102.261 151.103 138.417L150.644 139.833L152.128 139.723C155.654 139.463 161.494 138.708 168.521 137.799C169.312 137.697 170.119 137.592 170.939 137.487C179.059 136.439 188.535 135.244 197.887 134.357C207.244 133.469 216.447 132.893 224.026 133.079C227.816 133.172 231.174 133.455 233.928 133.976C235.681 134.307 237.148 134.728 238.313 135.234C229.546 138.808 217.631 145.797 204.295 154.359C191.562 162.533 177.466 172.186 163.476 181.768C161.651 183.017 159.828 184.266 158.01 185.509C142.244 196.296 126.861 206.729 113.941 214.601C107.48 218.536 101.654 221.82 96.7149 224.184C92.3008 226.297 88.6758 227.636 85.9753 228.085C66.1252 46.5619 258.487 -51.5853 393.972 38.7504L394.511 37.9421L393.972 38.7504C409.031 48.7897 427.085 65.0536 441.925 84.3225C455.963 102.549 467.06 123.378 470.1 144.101Z" fill="#52AE32" stroke="white" stroke-width="2"/>
</g>
<defs>
<clipPath id="clip0_3_30628">
<rect width="529.356" height="512" fill="white"/>
</clipPath>
</defs>
</svg>
