<svg id="Layer_1" data-name="Layer 1" xmlns="http://www.w3.org/2000/svg" viewBox="0 0 14.99 14.02"><title>Artboard 1</title><path d="M0,10.68V6.59C0,2.66,3.07,0,7.28,0H7.7C11.93,0,15,2.66,15,6.59v4.09a.44.44,0,0,1-.48.45h-.35A.16.16,0,0,1,14,11V6.81C14,3.28,11.33,1,7.5,1S1,3.28,1,6.81V11a.16.16,0,0,1-.17.16H.49A.45.45,0,0,1,0,10.68Zm1.78,2.59V9a.68.68,0,0,1,.76-.75H3.2A1.24,1.24,0,0,1,4.6,9.57V12.7A1.23,1.23,0,0,1,3.2,14H2.54A.68.68,0,0,1,1.78,13.27Zm8.62-.57V9.57a1.24,1.24,0,0,1,1.41-1.32h.64a.69.69,0,0,1,.78.75v4.27a.69.69,0,0,1-.78.75h-.64A1.24,1.24,0,0,1,10.4,12.7Z"/></svg>