<?xml version="1.0" encoding="utf-8"?>
<!-- Generator: Adobe Illustrator 22.0.0, SVG Export Plug-In . SVG Version: 6.00 Build 0)  -->
<svg version="1.1" id="Layer_1" xmlns="http://www.w3.org/2000/svg" xmlns:xlink="http://www.w3.org/1999/xlink" x="0px" y="0px"
	 viewBox="0 0 21 21" style="enable-background:new 0 0 21 21;" xml:space="preserve">
<style type="text/css">
	.st0{clip-path:url(#SVGID_2_);}
	.st1{fill:#222222;}
</style>
<g>
	<defs>
		<rect id="SVGID_1_" width="20.1" height="20.1"/>
	</defs>
	<clipPath id="SVGID_2_">
		<use xlink:href="#SVGID_1_"  style="overflow:visible;"/>
	</clipPath>
	<g class="st0">
		<path class="st1" d="M19.8,18.4l-3.7-3.7c1.4-1.8,2.1-4.1,1.9-6.4c-0.2-2.3-1.2-4.4-3-6C13.3,0.8,11-0.1,8.7,0
			C6.4,0.1,4.2,1,2.6,2.6S0,6.4,0,8.7C-0.1,11,0.8,13.2,2.3,15c1.5,1.7,3.7,2.8,6,3c2.3,0.2,4.6-0.5,6.4-1.9l3.7,3.7
			c0.1,0.1,0.2,0.2,0.3,0.2c0.1,0,0.3,0.1,0.4,0.1c0.1,0,0.3,0,0.4-0.1s0.2-0.1,0.3-0.2c0.2-0.2,0.3-0.4,0.3-0.7
			C20.1,18.8,20,18.6,19.8,18.4z M9.1,16.1c-1.4,0-2.7-0.4-3.9-1.2c-1.2-0.8-2-1.9-2.6-3.1c-0.5-1.3-0.7-2.7-0.4-4.1
			c0.3-1.3,0.9-2.6,1.9-3.6s2.2-1.7,3.6-1.9c1.4-0.3,2.8-0.1,4,0.4s2.4,1.4,3.1,2.6C15.5,6.4,16,7.7,16,9.1c0,1.9-0.7,3.6-2,4.9
			C12.7,15.4,11,16.1,9.1,16.1z"/>
	</g>
</g>
</svg>
